<mxfile host="app.diagrams.net" modified="2023-08-29T11:29:10.365Z" agent="Mozilla/5.0 (Windows NT 10.0; Win64; x64) AppleWebKit/537.36 (KHTML, like Gecko) Chrome/116.0.0.0 Safari/537.36" etag="mkgK3strZAcBMqflVObs" version="21.6.9" type="device">
  <diagram name="Página-1" id="_7Ez0WNuVf1_KEz-rWIJ">
    <mxGraphModel dx="1613" dy="726" grid="1" gridSize="10" guides="1" tooltips="1" connect="1" arrows="1" fold="1" page="1" pageScale="1" pageWidth="827" pageHeight="1169" math="0" shadow="0">
      <root>
        <mxCell id="0" />
        <mxCell id="1" parent="0" />
        <mxCell id="eOxaVYTtiR3sYuBkTwkF-1" value="Raposa" style="swimlane;fontStyle=1;align=center;verticalAlign=top;childLayout=stackLayout;horizontal=1;startSize=26;horizontalStack=0;resizeParent=1;resizeParentMax=0;resizeLast=0;collapsible=1;marginBottom=0;whiteSpace=wrap;html=1;" vertex="1" parent="1">
          <mxGeometry x="90" y="50" width="160" height="272" as="geometry" />
        </mxCell>
        <mxCell id="eOxaVYTtiR3sYuBkTwkF-2" value="+ Pelagem : String&lt;br&gt;+ Tamanho : Float&lt;br&gt;+ Peso : Float&lt;br&gt;+ Localização: String&lt;br&gt;+ TipoDeCauda: String&lt;br&gt;+ Dieta : String&lt;br&gt;+ CorDosOlhos: String&lt;br&gt;+ Orelhas: String&lt;br&gt;+ ExpectativaDeVida: Int&lt;br&gt;+ Especie: String" style="text;strokeColor=none;fillColor=none;align=left;verticalAlign=top;spacingLeft=4;spacingRight=4;overflow=hidden;rotatable=0;points=[[0,0.5],[1,0.5]];portConstraint=eastwest;whiteSpace=wrap;html=1;" vertex="1" parent="eOxaVYTtiR3sYuBkTwkF-1">
          <mxGeometry y="26" width="160" height="154" as="geometry" />
        </mxCell>
        <mxCell id="eOxaVYTtiR3sYuBkTwkF-3" value="" style="line;strokeWidth=1;fillColor=none;align=left;verticalAlign=middle;spacingTop=-1;spacingLeft=3;spacingRight=3;rotatable=0;labelPosition=right;points=[];portConstraint=eastwest;strokeColor=inherit;" vertex="1" parent="eOxaVYTtiR3sYuBkTwkF-1">
          <mxGeometry y="180" width="160" height="10" as="geometry" />
        </mxCell>
        <mxCell id="eOxaVYTtiR3sYuBkTwkF-4" value="+ Comer( ) : Void&lt;br&gt;+ Dormir( ) : Void&lt;br&gt;+ Procriar ( ) : Void&lt;br&gt;+ Correr ( ) : Void&lt;br&gt;+ FazerSom ( ) : Void" style="text;strokeColor=none;fillColor=none;align=left;verticalAlign=top;spacingLeft=4;spacingRight=4;overflow=hidden;rotatable=0;points=[[0,0.5],[1,0.5]];portConstraint=eastwest;whiteSpace=wrap;html=1;" vertex="1" parent="eOxaVYTtiR3sYuBkTwkF-1">
          <mxGeometry y="190" width="160" height="82" as="geometry" />
        </mxCell>
      </root>
    </mxGraphModel>
  </diagram>
</mxfile>
